# xmcd
#
# Track frame offsets:
#	150
#	12017
#	27393
#	41182
#	54782
#	68436
#	84751
#	97271
#	113413
#	125706
#	138695
#	151034
#
# Disc length: 2170 seconds
#
# Revision: 1
# Processed by: cddbd v1.5.1PL0 Copyright (c) Steve Scherf et al.
# Submitted via: audiograbber 1.83.01
#
DISCID=8f08780c
DTITLE=Di Flynn - Take Your Shoes Off
DYEAR=1900
DGENRE=Country
TTITLE0=For The First Time
TTITLE1=Blue Eyes Crying In The Rain
TTITLE2=Man With The Cane
TTITLE3=Just A Closer Walk With Thee
TTITLE4=River Road
TTITLE5=Beyond The Great Divide
TTITLE6=Jones On The Jukebox
TTITLE7=Take Your Shoes Off
TTITLE8=Blue Kentuky Girl
TTITLE9=Blanket On The Ground
TTITLE10=Happy Birthday To Me
TTITLE11=It Wasn't God Who Made Honky Tonk Angels
EXTD=
EXTT0=
EXTT1=
EXTT2=
EXTT3=
EXTT4=
EXTT5=
EXTT6=
EXTT7=
EXTT8=
EXTT9=
EXTT10=
EXTT11=
PLAYORDER=
